# Made using Asset Forge (www.assetforge.io) version 1.3 

mtllib Quad Cannons.mtl 

g engine_plane_5

v -0.1425 0.5 -0.62
v -0.1425 0.5 -0.3725
v -0.3575 0.5 -0.62
v -0.3575 0.5 -0.3725
v -0.1425 0.2925 -0.3725
v -0.1425 0.2925 -0.62
v -0.3575 0.2925 -0.3725
v -0.3575 0.2925 -0.62
v -0.3251986 0.3248014 -0.62
v -0.3251986 0.4676986 -0.62
v -0.1748014 0.4676986 -0.62
v -0.1748014 0.3248014 -0.62
v -0.2048808 0.3533808 -0.555
v -0.2951192 0.3533808 -0.555
v -0.2048808 0.4391192 -0.555
v -0.2951192 0.4391192 -0.555
v -0.1425 0.2925 -0.125
v -0.3575 0.2925 -0.125
v -0.186575 0.3350375 0.12
v -0.313425 0.3350375 0.12
v -0.3575 0.5 -0.125
v -0.1425 0.5 -0.125
v -0.186575 0.4574625 0.12
v -0.313425 0.4574625 0.12
vn 0 0.5 0
vn 0 -0.5 0
vn 0 0 -0.5
vn 0 0.4577108 -0.2012481
vn -0.4537684 0 -0.2099863
vn -0.4537684 0 -0.2099863
vn 0.4537684 0 -0.2099863
vn 0.4537684 0 -0.2099863
vn -0.5 0 0
vn 0 -0.4577108 -0.2012481
vn 0.5 0 0
vn 0 -0.4981541 0.04292428
vn 0 -0.49263 0.08553162
vn -0.4991223 0 0.02961344
vn -0.4964798 0 0.0592269
vn 0 0.4991811 0.02860441
vn 0 0.49263 0.08553167
vn 0 0.4967164 0.05720881
vn 0 0.49263 0.08553166
vn -0.4921004 0 0.08852787
vn 0.4991223 0 0.02961344
vn 0.4964798 0 0.0592269
vn 0.4921004 0 0.08852787
vn 0 0 0.5
vt 0.1425 -0.62
vt 0.1425 -0.3725
vt 0.3575 -0.62
vt 0.3575 -0.3725
vt 0.1425 0.3725
vt 0.1425 0.62
vt 0.3575 0.3725
vt 0.3575 0.62
vt 0.1425 0.2925
vt 0.3251986 0.3248014
vt 0.3575 0.2925
vt 0.3575 0.5
vt 0.3251986 0.4676986
vt 0.1748014 0.4676986
vt 0.1425 0.5
vt 0.1748014 0.3248014
vt 0.1748014 -0.62
vt 0.2048808 -0.555
vt 0.3251986 -0.62
vt 0.2951192 -0.555
vt -0.62 0.3248014
vt -0.62 0.4676986
vt -0.555 0.3533808
vt -0.555 0.4391192
vt 0.62 0.4676986
vt 0.62 0.3248014
vt 0.555 0.4391192
vt 0.555 0.3533808
vt -0.62 0.2925
vt -0.62 0.5
vt -0.3725 0.2925
vt -0.3725 0.5
vt 0.1748014 0.62
vt 0.3251986 0.62
vt 0.2048808 0.555
vt 0.2951192 0.555
vt 0.62 0.5
vt 0.62 0.2925
vt 0.3725 0.5
vt 0.3725 0.2925
vt 0.1425 0.125
vt 0.3575 0.125
vt 0.186575 -0.12
vt 0.313425 -0.12
vt -0.125 0.2925
vt -0.125 0.5
vt 0.1425 -0.125
vt 0.186575 0.12
vt 0.3575 -0.125
vt 0.313425 0.12
vt 0.12 0.3350375
vt 0.12 0.4574625
vt 0.125 0.5
vt 0.125 0.2925
vt -0.12 0.4574625
vt -0.12 0.3350375
vt -0.186575 0.3350375
vt -0.313425 0.3350375
vt -0.186575 0.4574625
vt -0.313425 0.4574625
vt 0.2951192 0.3533808
vt 0.2048808 0.3533808
vt 0.2951192 0.4391192
vt 0.2048808 0.4391192

usemtl _defaultMat (Instance)
usemap _defaultMat (Instance)
f 3/3/1 2/2/1 1/1/1
f 2/2/1 3/3/1 4/4/1
f 7/7/2 6/6/2 5/5/2
f 6/6/2 7/7/2 8/8/2
f 8/11/3 9/10/3 6/9/3
f 9/10/3 8/11/3 3/12/3
f 9/10/3 3/12/3 10/13/3
f 10/13/3 3/12/3 11/14/3
f 6/9/3 12/16/3 1/15/3
f 12/16/3 6/9/3 9/10/3
f 1/15/3 12/16/3 11/14/3
f 1/15/3 11/14/3 3/12/3
f 9/19/4 13/18/4 12/17/4
f 13/18/4 9/19/4 14/20/4
f 13/23/5 11/22/5 12/21/5
f 11/22/5 13/23/5 15/24/6
f 16/27/7 9/26/7 10/25/7
f 9/26/7 16/27/7 14/28/8
f 7/31/9 3/30/9 8/29/9
f 3/30/9 7/31/9 4/32/9
f 15/35/10 10/34/10 11/33/10
f 10/34/10 15/35/10 16/36/10
f 2/39/11 6/38/11 1/37/11
f 6/38/11 2/39/11 5/40/11

usemtl blueSteel (Instance)
usemap blueSteel (Instance)
f 19/43/13 18/42/12 17/41/12
f 18/42/12 19/43/13 20/44/13
f 18/45/14 4/32/9 7/31/9
f 4/32/9 18/45/14 21/46/15
f 21/49/18 23/48/17 22/47/16
f 23/48/17 21/49/18 24/50/19
f 20/51/20 21/46/15 18/45/14
f 21/46/15 20/51/20 24/52/20
f 18/42/12 5/5/2 17/41/12
f 5/5/2 18/42/12 7/7/2
f 4/4/1 22/47/16 2/2/1
f 22/47/16 4/4/1 21/49/18
f 23/55/23 17/54/22 22/53/21
f 17/54/22 23/55/23 19/56/23
f 22/53/21 5/40/11 2/39/11
f 5/40/11 22/53/21 17/54/22
f 23/59/24 20/58/24 19/57/24
f 20/58/24 23/59/24 24/60/24

usemtl black (Instance)
usemap black (Instance)
f 16/63/3 13/62/3 14/61/3
f 13/62/3 16/63/3 15/64/3
g engine_plane_6

v -0.1425 0.8 -0.72
v -0.1425 0.8 -0.4725
v -0.3575 0.8 -0.72
v -0.3575 0.8 -0.4725
v -0.1425 0.5925 -0.4725
v -0.1425 0.5925 -0.72
v -0.3575 0.5925 -0.4725
v -0.3575 0.5925 -0.72
v -0.3251986 0.6248014 -0.72
v -0.3251986 0.7676986 -0.72
v -0.1748014 0.7676986 -0.72
v -0.1748014 0.6248014 -0.72
v -0.2048808 0.6533809 -0.655
v -0.2951192 0.6533809 -0.655
v -0.2048808 0.7391192 -0.655
v -0.2951192 0.7391192 -0.655
v -0.1425 0.5925 -0.225
v -0.3575 0.5925 -0.225
v -0.186575 0.6350375 0.01999998
v -0.313425 0.6350375 0.01999998
v -0.3575 0.8 -0.225
v -0.1425 0.8 -0.225
v -0.186575 0.7574625 0.01999998
v -0.313425 0.7574625 0.01999998
vt 0.1425 -0.72
vt 0.1425 -0.4725
vt 0.3575 -0.72
vt 0.3575 -0.4725
vt 0.1425 0.4725
vt 0.1425 0.72
vt 0.3575 0.4725
vt 0.3575 0.72
vt 0.1425 0.5925
vt 0.3251986 0.6248014
vt 0.3575 0.5925
vt 0.3575 0.8
vt 0.3251986 0.7676986
vt 0.1748014 0.7676986
vt 0.1425 0.8
vt 0.1748014 0.6248014
vt 0.1748014 -0.72
vt 0.2048808 -0.655
vt 0.3251986 -0.72
vt 0.2951192 -0.655
vt -0.72 0.6248014
vt -0.72 0.7676986
vt -0.655 0.6533809
vt -0.655 0.7391192
vt 0.72 0.7676986
vt 0.72 0.6248014
vt 0.655 0.7391192
vt 0.655 0.6533809
vt -0.72 0.5925
vt -0.72 0.8
vt -0.4725 0.5925
vt -0.4725 0.8
vt 0.1748014 0.72
vt 0.3251986 0.72
vt 0.2048808 0.655
vt 0.2951192 0.655
vt 0.72 0.8
vt 0.72 0.5925
vt 0.4725 0.8
vt 0.4725 0.5925
vt 0.1425 0.225
vt 0.3575 0.225
vt 0.186575 -0.01999998
vt 0.313425 -0.01999998
vt -0.225 0.5925
vt -0.225 0.8
vt 0.1425 -0.225
vt 0.186575 0.01999998
vt 0.3575 -0.225
vt 0.313425 0.01999998
vt 0.01999998 0.6350375
vt 0.01999998 0.7574625
vt 0.225 0.8
vt 0.225 0.5925
vt -0.01999998 0.7574625
vt -0.01999998 0.6350375
vt -0.186575 0.6350375
vt -0.313425 0.6350375
vt -0.186575 0.7574625
vt -0.313425 0.7574625
vt 0.2951192 0.6533809
vt 0.2048808 0.6533809
vt 0.2951192 0.7391192
vt 0.2048808 0.7391192

usemtl _defaultMat (Instance) (Instance)
usemap _defaultMat (Instance) (Instance)
f 27/67/1 26/66/1 25/65/1
f 26/66/1 27/67/1 28/68/1
f 31/71/2 30/70/2 29/69/2
f 30/70/2 31/71/2 32/72/2
f 32/75/3 33/74/3 30/73/3
f 33/74/3 32/75/3 27/76/3
f 33/74/3 27/76/3 34/77/3
f 34/77/3 27/76/3 35/78/3
f 30/73/3 36/80/3 25/79/3
f 36/80/3 30/73/3 33/74/3
f 25/79/3 36/80/3 35/78/3
f 25/79/3 35/78/3 27/76/3
f 33/83/4 37/82/4 36/81/4
f 37/82/4 33/83/4 38/84/4
f 37/87/5 35/86/5 36/85/5
f 35/86/5 37/87/5 39/88/6
f 40/91/7 33/90/7 34/89/7
f 33/90/7 40/91/7 38/92/8
f 31/95/9 27/94/9 32/93/9
f 27/94/9 31/95/9 28/96/9
f 39/99/10 34/98/10 35/97/10
f 34/98/10 39/99/10 40/100/10
f 26/103/11 30/102/11 25/101/11
f 30/102/11 26/103/11 29/104/11

usemtl blueSteel (Instance) (Instance)
usemap blueSteel (Instance) (Instance)
f 43/107/13 42/106/12 41/105/12
f 42/106/12 43/107/13 44/108/13
f 42/109/14 28/96/9 31/95/9
f 28/96/9 42/109/14 45/110/15
f 45/113/18 47/112/17 46/111/16
f 47/112/17 45/113/18 48/114/19
f 44/115/20 45/110/15 42/109/14
f 45/110/15 44/115/20 48/116/20
f 42/106/12 29/69/2 41/105/12
f 29/69/2 42/106/12 31/71/2
f 28/68/1 46/111/16 26/66/1
f 46/111/16 28/68/1 45/113/18
f 47/119/23 41/118/22 46/117/21
f 41/118/22 47/119/23 43/120/23
f 46/117/21 29/104/11 26/103/11
f 29/104/11 46/117/21 41/118/22
f 47/123/24 44/122/24 43/121/24
f 44/122/24 47/123/24 48/124/24

usemtl black (Instance) (Instance)
usemap black (Instance) (Instance)
f 40/127/3 37/126/3 38/125/3
f 37/126/3 40/127/3 39/128/3
