# Tiled2Unity generated file. Do not modify by hand.
# Wavefront file for 'Room-2_mesh_0002.obj'

# Vertices (Count = 380)
v -384 -16 0
v -400 -16 0
v -400 0 0
v -384 0 0
v -368 -16 0
v -384 -16 0
v -384 0 0
v -368 0 0
v -352 -16 0
v -368 -16 0
v -368 0 0
v -352 0 0
v -336 -16 0
v -352 -16 0
v -352 0 0
v -336 0 0
v -320 -16 0
v -336 -16 0
v -336 0 0
v -320 0 0
v -304 -16 0
v -320 -16 0
v -320 0 0
v -304 0 0
v -288 -16 0
v -304 -16 0
v -304 0 0
v -288 0 0
v -272 -16 0
v -288 -16 0
v -288 0 0
v -272 0 0
v -256 -16 0
v -272 -16 0
v -272 0 0
v -256 0 0
v -240 -16 0
v -256 -16 0
v -256 0 0
v -240 0 0
v -224 -16 0
v -240 -16 0
v -240 0 0
v -224 0 0
v -208 -16 0
v -224 -16 0
v -224 0 0
v -208 0 0
v -192 -16 0
v -208 -16 0
v -208 0 0
v -192 0 0
v -176 -16 0
v -192 -16 0
v -192 0 0
v -176 0 0
v -160 -16 0
v -176 -16 0
v -176 0 0
v -160 0 0
v -144 -16 0
v -160 -16 0
v -160 0 0
v -144 0 0
v -128 -16 0
v -144 -16 0
v -144 0 0
v -128 0 0
v -112 -16 0
v -128 -16 0
v -128 0 0
v -112 0 0
v -96 -16 0
v -112 -16 0
v -112 0 0
v -96 0 0
v -80 -16 0
v -96 -16 0
v -96 0 0
v -80 0 0
v -64 -16 0
v -80 -16 0
v -80 0 0
v -64 0 0
v -48 -16 0
v -64 -16 0
v -64 0 0
v -48 0 0
v -32 -16 0
v -48 -16 0
v -48 0 0
v -32 0 0
v -16 -16 0
v -32 -16 0
v -32 0 0
v -16 0 0
v 0 -16 0
v -16 -16 0
v -16 0 0
v 0 0 0
v -384 -32 0
v -400 -32 0
v -400 -16 0
v -384 -16 0
v 0 -32 0
v -16 -32 0
v -16 -16 0
v 0 -16 0
v -384 -48 0
v -400 -48 0
v -400 -32 0
v -384 -32 0
v 0 -48 0
v -16 -48 0
v -16 -32 0
v 0 -32 0
v -384 -64 0
v -400 -64 0
v -400 -48 0
v -384 -48 0
v 0 -64 0
v -16 -64 0
v -16 -48 0
v 0 -48 0
v -384 -80 0
v -400 -80 0
v -400 -64 0
v -384 -64 0
v 0 -80 0
v -16 -80 0
v -16 -64 0
v 0 -64 0
v -384 -96 0
v -400 -96 0
v -400 -80 0
v -384 -80 0
v 0 -96 0
v -16 -96 0
v -16 -80 0
v 0 -80 0
v -384 -112 0
v -400 -112 0
v -400 -96 0
v -384 -96 0
v 0 -112 0
v -16 -112 0
v -16 -96 0
v 0 -96 0
v -384 -128 0
v -400 -128 0
v -400 -112 0
v -384 -112 0
v 0 -128 0
v -16 -128 0
v -16 -112 0
v 0 -112 0
v -384 -144 0
v -400 -144 0
v -400 -128 0
v -384 -128 0
v 0 -144 0
v -16 -144 0
v -16 -128 0
v 0 -128 0
v -384 -160 0
v -400 -160 0
v -400 -144 0
v -384 -144 0
v 0 -160 0
v -16 -160 0
v -16 -144 0
v 0 -144 0
v -384 -176 0
v -400 -176 0
v -400 -160 0
v -384 -160 0
v 0 -176 0
v -16 -176 0
v -16 -160 0
v 0 -160 0
v -384 -192 0
v -400 -192 0
v -400 -176 0
v -384 -176 0
v 0 -192 0
v -16 -192 0
v -16 -176 0
v 0 -176 0
v -384 -208 0
v -400 -208 0
v -400 -192 0
v -384 -192 0
v 0 -208 0
v -16 -208 0
v -16 -192 0
v 0 -192 0
v -384 -224 0
v -400 -224 0
v -400 -208 0
v -384 -208 0
v 0 -224 0
v -16 -224 0
v -16 -208 0
v 0 -208 0
v -384 -240 0
v -400 -240 0
v -400 -224 0
v -384 -224 0
v 0 -240 0
v -16 -240 0
v -16 -224 0
v 0 -224 0
v -384 -256 0
v -400 -256 0
v -400 -240 0
v -384 -240 0
v 0 -256 0
v -16 -256 0
v -16 -240 0
v 0 -240 0
v -384 -272 0
v -400 -272 0
v -400 -256 0
v -384 -256 0
v 0 -272 0
v -16 -272 0
v -16 -256 0
v 0 -256 0
v -384 -288 0
v -400 -288 0
v -400 -272 0
v -384 -272 0
v 0 -288 0
v -16 -288 0
v -16 -272 0
v 0 -272 0
v -384 -304 0
v -400 -304 0
v -400 -288 0
v -384 -288 0
v 0 -304 0
v -16 -304 0
v -16 -288 0
v 0 -288 0
v -384 -320 0
v -400 -320 0
v -400 -304 0
v -384 -304 0
v 0 -320 0
v -16 -320 0
v -16 -304 0
v 0 -304 0
v -384 -336 0
v -400 -336 0
v -400 -320 0
v -384 -320 0
v 0 -336 0
v -16 -336 0
v -16 -320 0
v 0 -320 0
v -384 -352 0
v -400 -352 0
v -400 -336 0
v -384 -336 0
v 0 -352 0
v -16 -352 0
v -16 -336 0
v 0 -336 0
v -384 -368 0
v -400 -368 0
v -400 -352 0
v -384 -352 0
v 0 -368 0
v -16 -368 0
v -16 -352 0
v 0 -352 0
v -384 -384 0
v -400 -384 0
v -400 -368 0
v -384 -368 0
v 0 -384 0
v -16 -384 0
v -16 -368 0
v 0 -368 0
v -384 -400 0
v -400 -400 0
v -400 -384 0
v -384 -384 0
v -368 -400 0
v -384 -400 0
v -384 -384 0
v -368 -384 0
v -352 -400 0
v -368 -400 0
v -368 -384 0
v -352 -384 0
v -336 -400 0
v -352 -400 0
v -352 -384 0
v -336 -384 0
v -320 -400 0
v -336 -400 0
v -336 -384 0
v -320 -384 0
v -304 -400 0
v -320 -400 0
v -320 -384 0
v -304 -384 0
v -288 -400 0
v -304 -400 0
v -304 -384 0
v -288 -384 0
v -272 -400 0
v -288 -400 0
v -288 -384 0
v -272 -384 0
v -256 -400 0
v -272 -400 0
v -272 -384 0
v -256 -384 0
v -240 -400 0
v -256 -400 0
v -256 -384 0
v -240 -384 0
v -224 -400 0
v -240 -400 0
v -240 -384 0
v -224 -384 0
v -192 -400 0
v -208 -400 0
v -208 -384 0
v -192 -384 0
v -176 -400 0
v -192 -400 0
v -192 -384 0
v -176 -384 0
v -160 -400 0
v -176 -400 0
v -176 -384 0
v -160 -384 0
v -144 -400 0
v -160 -400 0
v -160 -384 0
v -144 -384 0
v -128 -400 0
v -144 -400 0
v -144 -384 0
v -128 -384 0
v -112 -400 0
v -128 -400 0
v -128 -384 0
v -112 -384 0
v -96 -400 0
v -112 -400 0
v -112 -384 0
v -96 -384 0
v -80 -400 0
v -96 -400 0
v -96 -384 0
v -80 -384 0
v -64 -400 0
v -80 -400 0
v -80 -384 0
v -64 -384 0
v -48 -400 0
v -64 -400 0
v -64 -384 0
v -48 -384 0
v -32 -400 0
v -48 -400 0
v -48 -384 0
v -32 -384 0
v -16 -400 0
v -32 -400 0
v -32 -384 0
v -16 -384 0
v 0 -400 0
v -16 -400 0
v -16 -384 0
v 0 -384 0

# Texture cooridinates (Count = 26)
vt 0.175 0.5
vt 0.2 0.5
vt 0.2 0.5277778
vt 0.175 0.5277778
vt 0.125 0.4444444
vt 0.15 0.4444444
vt 0.15 0.4722222
vt 0.125 0.4722222
vt 0.2 0.5555556
vt 0.175 0.5555556
vt 0.175 0.4722222
vt 0.15 0.5
vt 0.2 0.4722222
vt 0.075 0.5277778
vt 0.1 0.5277778
vt 0.1 0.5555556
vt 0.075 0.5555556
vt 0.125 0.5
vt 0.125 0.5277778
vt 0.15 0.5277778
vt 0.15 0.5555556
vt 0.125 0.5555556
vt 0.025 0.1388889
vt 0.05 0.1388889
vt 0.05 0.1666667
vt 0.025 0.1666667

# Normal
vn 0 0 -1

# Mesh description
g Room-2_mesh_0002

# Faces
f 1/1/1 2/2/1 3/3/1 4/4/1
f 5/5/1 6/6/1 7/7/1 8/8/1
f 9/5/1 10/6/1 11/7/1 12/8/1
f 13/5/1 14/6/1 15/7/1 16/8/1
f 17/5/1 18/6/1 19/7/1 20/8/1
f 21/5/1 22/6/1 23/7/1 24/8/1
f 25/5/1 26/6/1 27/7/1 28/8/1
f 29/5/1 30/6/1 31/7/1 32/8/1
f 33/5/1 34/6/1 35/7/1 36/8/1
f 37/5/1 38/6/1 39/7/1 40/8/1
f 41/5/1 42/6/1 43/7/1 44/8/1
f 45/5/1 46/6/1 47/7/1 48/8/1
f 49/5/1 50/6/1 51/7/1 52/8/1
f 53/5/1 54/6/1 55/7/1 56/8/1
f 57/5/1 58/6/1 59/7/1 60/8/1
f 61/5/1 62/6/1 63/7/1 64/8/1
f 65/5/1 66/6/1 67/7/1 68/8/1
f 69/5/1 70/6/1 71/7/1 72/8/1
f 73/5/1 74/6/1 75/7/1 76/8/1
f 77/5/1 78/6/1 79/7/1 80/8/1
f 81/5/1 82/6/1 83/7/1 84/8/1
f 85/5/1 86/6/1 87/7/1 88/8/1
f 89/5/1 90/6/1 91/7/1 92/8/1
f 93/5/1 94/6/1 95/7/1 96/8/1
f 97/4/1 98/3/1 99/9/1 100/10/1
f 101/7/1 102/11/1 103/1/1 104/12/1
f 105/11/1 106/13/1 107/2/1 108/1/1
f 109/7/1 110/11/1 111/1/1 112/12/1
f 113/11/1 114/13/1 115/2/1 116/1/1
f 117/7/1 118/11/1 119/1/1 120/12/1
f 121/11/1 122/13/1 123/2/1 124/1/1
f 125/7/1 126/11/1 127/1/1 128/12/1
f 129/11/1 130/13/1 131/2/1 132/1/1
f 133/7/1 134/11/1 135/1/1 136/12/1
f 137/11/1 138/13/1 139/2/1 140/1/1
f 141/7/1 142/11/1 143/1/1 144/12/1
f 145/11/1 146/13/1 147/2/1 148/1/1
f 149/7/1 150/11/1 151/1/1 152/12/1
f 153/11/1 154/13/1 155/2/1 156/1/1
f 157/7/1 158/11/1 159/1/1 160/12/1
f 161/11/1 162/13/1 163/2/1 164/1/1
f 165/7/1 166/11/1 167/1/1 168/12/1
f 169/11/1 170/13/1 171/2/1 172/1/1
f 173/7/1 174/11/1 175/1/1 176/12/1
f 177/11/1 178/13/1 179/2/1 180/1/1
f 181/7/1 182/11/1 183/1/1 184/12/1
f 185/11/1 186/13/1 187/2/1 188/1/1
f 189/7/1 190/11/1 191/1/1 192/12/1
f 193/11/1 194/13/1 195/2/1 196/1/1
f 197/7/1 198/11/1 199/1/1 200/12/1
f 201/11/1 202/13/1 203/2/1 204/1/1
f 205/7/1 206/11/1 207/1/1 208/12/1
f 209/11/1 210/13/1 211/2/1 212/1/1
f 213/7/1 214/11/1 215/1/1 216/12/1
f 217/11/1 218/13/1 219/2/1 220/1/1
f 221/7/1 222/11/1 223/1/1 224/12/1
f 225/11/1 226/13/1 227/2/1 228/1/1
f 229/7/1 230/11/1 231/1/1 232/12/1
f 233/11/1 234/13/1 235/2/1 236/1/1
f 237/7/1 238/11/1 239/1/1 240/12/1
f 241/11/1 242/13/1 243/2/1 244/1/1
f 245/7/1 246/11/1 247/1/1 248/12/1
f 249/11/1 250/13/1 251/2/1 252/1/1
f 253/7/1 254/11/1 255/1/1 256/12/1
f 257/11/1 258/13/1 259/2/1 260/1/1
f 261/7/1 262/11/1 263/1/1 264/12/1
f 265/11/1 266/13/1 267/2/1 268/1/1
f 269/7/1 270/11/1 271/1/1 272/12/1
f 273/11/1 274/13/1 275/2/1 276/1/1
f 277/7/1 278/11/1 279/1/1 280/12/1
f 281/11/1 282/13/1 283/2/1 284/1/1
f 285/14/1 286/15/1 287/16/1 288/17/1
f 289/8/1 290/7/1 291/12/1 292/18/1
f 293/8/1 294/7/1 295/12/1 296/18/1
f 297/8/1 298/7/1 299/12/1 300/18/1
f 301/8/1 302/7/1 303/12/1 304/18/1
f 305/8/1 306/7/1 307/12/1 308/18/1
f 309/8/1 310/7/1 311/12/1 312/18/1
f 313/8/1 314/7/1 315/12/1 316/18/1
f 317/8/1 318/7/1 319/12/1 320/18/1
f 321/19/1 322/20/1 323/21/1 324/22/1
f 325/23/1 326/24/1 327/25/1 328/26/1
f 329/20/1 330/4/1 331/10/1 332/21/1
f 333/8/1 334/7/1 335/12/1 336/18/1
f 337/8/1 338/7/1 339/12/1 340/18/1
f 341/8/1 342/7/1 343/12/1 344/18/1
f 345/8/1 346/7/1 347/12/1 348/18/1
f 349/8/1 350/7/1 351/12/1 352/18/1
f 353/8/1 354/7/1 355/12/1 356/18/1
f 357/8/1 358/7/1 359/12/1 360/18/1
f 361/8/1 362/7/1 363/12/1 364/18/1
f 365/8/1 366/7/1 367/12/1 368/18/1
f 369/8/1 370/7/1 371/12/1 372/18/1
f 373/8/1 374/7/1 375/12/1 376/18/1
f 377/15/1 378/19/1 379/22/1 380/16/1

